<svg id="Capa_1" data-name="Capa 1" xmlns="http://www.w3.org/2000/svg" viewBox="0 0 665.8 146.79"><defs><style>.cls-1{fill:#efcb4b;}</style></defs><title>logo5</title><polygon class="cls-1" points="61.39 26.21 52.64 34.95 38.67 20.99 17.71 0 35.18 0 61.39 26.21"/><polygon class="cls-1" points="108.57 73.39 70.12 111.83 61.39 120.57 56.15 125.82 35.18 146.79 17.71 146.79 38.67 125.82 52.66 111.83 56.15 108.35 61.39 103.11 73.62 90.88 91.09 73.4 61.39 43.7 66.63 38.46 70.13 34.95 73.62 38.44 80.04 44.86 88.92 53.74 108.57 73.39"/><polygon class="cls-1" points="105.07 0 84.1 20.99 70.13 34.95 66.63 38.46 61.39 43.7 49.16 55.93 31.69 73.4 42.22 83.93 51.1 92.81 61.39 103.11 56.15 108.35 52.66 111.83 49.16 108.33 42.51 101.69 33.63 92.81 14.21 73.39 52.64 34.95 61.39 26.21 87.6 0 105.07 0"/><polygon class="cls-1" points="105.07 146.79 87.6 146.79 66.63 125.82 61.39 120.57 70.12 111.83 84.1 125.82 105.07 146.79"/><polygon class="cls-1" points="33.63 92.81 42.51 101.69 17.47 127.56 0 127.56 33.63 92.81"/><polygon class="cls-1" points="80.31 62.62 51.1 92.81 42.22 83.93 71.43 53.74 80.31 62.62"/><polygon class="cls-1" points="122.31 19.23 88.92 53.74 80.04 44.86 104.83 19.23 122.31 19.23"/><path class="cls-1" d="M190,108.52q-5,1.16-10.73,2a74.62,74.62,0,0,1-11.3.86,69.8,69.8,0,0,1-16.21-1.65,24.2,24.2,0,0,1-11.23-5.84,25.76,25.76,0,0,1-6.62-11.23q-2.24-7.05-2.24-17.86t2.74-18.15a29.45,29.45,0,0,1,7.56-11.59A26.71,26.71,0,0,1,153.67,39a63.67,63.67,0,0,1,15.41-1.73,82.77,82.77,0,0,1,11.09.72,88.84,88.84,0,0,1,10.37,2L189,52.64A68.77,68.77,0,0,0,180,51a82.77,82.77,0,0,0-9.65-.51,38.93,38.93,0,0,0-9,.94A14.45,14.45,0,0,0,154.6,55a16.56,16.56,0,0,0-4.24,7.27,40.74,40.74,0,0,0-1.44,12,47.49,47.49,0,0,0,1.22,12A16.58,16.58,0,0,0,154,93.54a13.24,13.24,0,0,0,6.62,3.75,41,41,0,0,0,9.79,1,66,66,0,0,0,9-.65,87.49,87.49,0,0,0,9.29-1.8Z"/><path class="cls-1" d="M272.92,73.81q0,11.1-2.3,18.44A28.84,28.84,0,0,1,264,104a23.76,23.76,0,0,1-10.42,6.19,48.53,48.53,0,0,1-13.73,1.8,52.53,52.53,0,0,1-13.93-1.66,22,22,0,0,1-10.14-5.83,27,27,0,0,1-6.25-11.38q-2.16-7.2-2.15-18.29t2.3-18.43a29.14,29.14,0,0,1,6.53-11.74,23.29,23.29,0,0,1,10.28-6.19,48.29,48.29,0,0,1,13.8-1.8,53.15,53.15,0,0,1,13.94,1.65,22.66,22.66,0,0,1,10.2,5.83,26.6,26.6,0,0,1,6.32,11.38Q272.92,62.72,272.92,73.81Zm-17.29.58a64.84,64.84,0,0,0-.94-12.24,19.22,19.22,0,0,0-2.89-7.49,9.92,9.92,0,0,0-4.92-3.75,21.43,21.43,0,0,0-6.87-1,20.09,20.09,0,0,0-6.73,1,10.54,10.54,0,0,0-4.85,3.68A17.27,17.27,0,0,0,225.54,62a70.28,70.28,0,0,0-.87,12.25,71.52,71.52,0,0,0,.87,12.31,18,18,0,0,0,2.89,7.56,10.29,10.29,0,0,0,4.85,3.74,23.63,23.63,0,0,0,13.67,0,10,10,0,0,0,4.85-3.67,18.6,18.6,0,0,0,2.89-7.49A65.94,65.94,0,0,0,255.63,74.39Z"/><path class="cls-1" d="M334.27,102.62a72.69,72.69,0,0,1-11,6.26,30.46,30.46,0,0,1-22.25.79,17.64,17.64,0,0,1-7.85-5.9,30.45,30.45,0,0,1-5-11.09,69.93,69.93,0,0,1-1.8-17.28,55.34,55.34,0,0,1,2.45-17.72,33.29,33.29,0,0,1,6.55-11.74,24.08,24.08,0,0,1,9.58-6.55,34,34,0,0,1,11.81-2,34.78,34.78,0,0,1,8.57,1,31.22,31.22,0,0,1,7.56,3l.14-.15q-.29-4-.5-7.7c-.14-2.45-.22-5-.22-7.56V3.67h17.29V110H335.42Zm-2-48a36.23,36.23,0,0,0-6.33-2.88,20.46,20.46,0,0,0-6.48-1,17.58,17.58,0,0,0-6,1,11.66,11.66,0,0,0-5,3.76,20.09,20.09,0,0,0-3.53,7.37,45.32,45.32,0,0,0-1.3,12,61.33,61.33,0,0,0,.87,11.48A19.43,19.43,0,0,0,307,93.32a8.26,8.26,0,0,0,4,3.39,15,15,0,0,0,5.33.87,17.43,17.43,0,0,0,7.49-1.77,56.42,56.42,0,0,0,8.49-5.15Z"/><path class="cls-1" d="M367.39,97.14h26.79V51.63H368.26v-13h43.2V97.14h19.59V110H367.39Zm46.24-81.51a18.47,18.47,0,0,1-.51,4.75,6.23,6.23,0,0,1-1.73,3A6.68,6.68,0,0,1,408.08,25a27.35,27.35,0,0,1-5.4.43,27.63,27.63,0,0,1-5.33-.43,7.27,7.27,0,0,1-3.46-1.59,5.53,5.53,0,0,1-1.72-3,21.49,21.49,0,0,1-.44-4.75,21.69,21.69,0,0,1,.44-4.68,5.25,5.25,0,0,1,1.72-3,8.93,8.93,0,0,1,3.46-1.65,20.75,20.75,0,0,1,5.33-.58,20.54,20.54,0,0,1,5.4.58,8.16,8.16,0,0,1,3.31,1.65,5.87,5.87,0,0,1,1.73,3A18.64,18.64,0,0,1,413.63,15.63Z"/><path class="cls-1" d="M514.3,49.47l-10.95,1.16A16.9,16.9,0,0,1,505.73,55a19.13,19.13,0,0,1,.93,6.62q0,13.4-7.42,19.3t-23,5.91a27,27,0,0,1-5-.37,17.54,17.54,0,0,1-3.39-.93,6.89,6.89,0,0,0-2.45,2.16,4.79,4.79,0,0,0-.72,2.59A6.84,6.84,0,0,0,465,92a2.56,2.56,0,0,0,1.22,1.51A17.18,17.18,0,0,0,469,94.84a35.94,35.94,0,0,0,4.82,1.44c3.56.67,7.13,1.37,10.74,2.09s6.83,1.42,9.72,2.09a50.06,50.06,0,0,1,7.7,2.59,16.65,16.65,0,0,1,5.26,3.53,12.72,12.72,0,0,1,2.95,5,23.3,23.3,0,0,1,.94,7,22.75,22.75,0,0,1-2,9.58,19.37,19.37,0,0,1-6.19,7.49,33.42,33.42,0,0,1-10.73,5,57.93,57.93,0,0,1-15.77,1.87,72.52,72.52,0,0,1-15.2-1.37,30.46,30.46,0,0,1-10.22-4,14.88,14.88,0,0,1-5.69-6.48,21.06,21.06,0,0,1-1.73-8.64,16.74,16.74,0,0,1,1.08-6.19A18.57,18.57,0,0,1,447.4,111a19.79,19.79,0,0,1,3.81-3.67,35.65,35.65,0,0,1,4.32-2.74,13.91,13.91,0,0,1-5.68-4.46,12.72,12.72,0,0,1,0-13.54,17.54,17.54,0,0,1,5.4-5,20,20,0,0,1-6.13-7.42q-2.22-4.53-2.23-12.45,0-13.11,7.35-19.09t22.47-6a60.6,60.6,0,0,1,8.85.57,45.35,45.35,0,0,1,6.56,1.44H514.3ZM485.64,112l-7.5-1.45c-2.59-.5-5.47-1.08-8.64-1.72A24.25,24.25,0,0,0,463,113.2a9.39,9.39,0,0,0-2.81,7.13,11.49,11.49,0,0,0,.8,4.39A7.18,7.18,0,0,0,463.6,128a14.63,14.63,0,0,0,5.11,2,38.39,38.39,0,0,0,8.14.72,33.1,33.1,0,0,0,8.14-.87,17,17,0,0,0,5.47-2.32,8.83,8.83,0,0,0,3-3.41,9.43,9.43,0,0,0,.94-4.14,6.54,6.54,0,0,0-1.94-5Q490.53,113.14,485.64,112Zm4.46-50.34a20.16,20.16,0,0,0-.87-6.44,10,10,0,0,0-2.44-4.06,9.69,9.69,0,0,0-4.18-2.24,22.71,22.71,0,0,0-6.05-.72,24.36,24.36,0,0,0-6,.65,8.71,8.71,0,0,0-4.1,2.24,10,10,0,0,0-2.38,4.13,21.35,21.35,0,0,0-.79,6.3,22.1,22.1,0,0,0,.79,6.37,10.47,10.47,0,0,0,2.38,4.27,8.94,8.94,0,0,0,4.18,2.39,22.71,22.71,0,0,0,6,.72,21.88,21.88,0,0,0,6-.72,9.21,9.21,0,0,0,4.11-2.32,10.51,10.51,0,0,0,2.44-4.2A20.25,20.25,0,0,0,490.1,61.64Z"/><path class="cls-1" d="M521.78,38.67h12.68l.86,7.2a35.62,35.62,0,0,1,6.91-6.12,14.87,14.87,0,0,1,8.36-2.38,12.59,12.59,0,0,1,7.92,2.45,14.13,14.13,0,0,1,4.61,6.2,36.21,36.21,0,0,1,7-6.27,14.87,14.87,0,0,1,8.36-2.38,15.36,15.36,0,0,1,5.61,1,10.76,10.76,0,0,1,4.47,3.32,17,17,0,0,1,2.95,5.76,28.22,28.22,0,0,1,1.08,8.35V110H577.52V59.27a29.89,29.89,0,0,0-.22-4,6.57,6.57,0,0,0-.79-2.52,3.88,3.88,0,0,0-1.3-1.36,3.26,3.26,0,0,0-1.72-.44,5.82,5.82,0,0,0-3.75,1.59,47.9,47.9,0,0,0-5,5.33V110h-15V59.27a22.56,22.56,0,0,0-.29-4,7.48,7.48,0,0,0-.86-2.52,3.88,3.88,0,0,0-1.3-1.36,3.26,3.26,0,0,0-1.72-.44,5.82,5.82,0,0,0-3.75,1.59,47.9,47.9,0,0,0-5,5.33V110h-15Z"/><path class="cls-1" d="M648.52,60.85q0-5.19-3.31-7.78t-11-2.59a85.13,85.13,0,0,0-10.8.72q-5.61.72-11.09,1.87L610.79,40.4a120.49,120.49,0,0,1,12.81-2.3,106.24,106.24,0,0,1,13.54-.87,56.26,56.26,0,0,1,13.4,1.37,22.59,22.59,0,0,1,8.85,4.1,15.45,15.45,0,0,1,4.9,7.06A31,31,0,0,1,665.8,60v50H651.4l-1-6.62A74.62,74.62,0,0,1,638.8,109a35.79,35.79,0,0,1-13,2.37q-9.81,0-16.06-5.18t-6.27-15.84a25.85,25.85,0,0,1,1.87-10.09,17.1,17.1,0,0,1,6.27-7.49,32.83,32.83,0,0,1,11.59-4.6,83.76,83.76,0,0,1,17.72-1.59h7.63Zm-7.2,17a75.22,75.22,0,0,0-10.8.64,20.93,20.93,0,0,0-6.92,2.09,8.29,8.29,0,0,0-3.6,3.53,11.36,11.36,0,0,0-1,5c0,3.36.93,5.79,2.8,7.27s4.49,2.23,7.85,2.23a24,24,0,0,0,9-1.69,69.71,69.71,0,0,0,9.87-5.07v-14Z"/></svg>