<svg id="Capa_1" data-name="Capa 1" xmlns="http://www.w3.org/2000/svg" viewBox="0 0 665.81 146.79"><defs><style>.cls-1{fill:#464445;}</style></defs><title>logo7</title><polygon class="cls-1" points="61.39 26.21 52.64 34.95 38.67 20.99 17.71 0 35.18 0 61.39 26.21"/><polygon class="cls-1" points="108.57 73.39 70.12 111.83 61.39 120.57 56.15 125.82 35.18 146.79 17.71 146.79 38.67 125.82 52.66 111.83 56.15 108.35 61.39 103.11 73.62 90.88 91.09 73.4 61.39 43.7 66.63 38.46 70.13 34.95 73.62 38.44 80.04 44.86 88.92 53.74 108.57 73.39"/><polygon class="cls-1" points="105.07 0 84.1 20.99 70.13 34.95 66.63 38.46 61.39 43.7 49.16 55.93 31.69 73.4 42.22 83.93 51.1 92.81 61.39 103.11 56.15 108.35 52.66 111.83 49.16 108.33 42.51 101.69 33.63 92.81 14.21 73.39 52.64 34.95 61.39 26.21 87.6 0 105.07 0"/><polygon class="cls-1" points="105.07 146.79 87.6 146.79 66.63 125.82 61.39 120.57 70.12 111.83 84.1 125.82 105.07 146.79"/><polygon class="cls-1" points="33.63 92.81 42.51 101.69 17.47 127.56 0 127.56 33.63 92.81"/><polygon class="cls-1" points="80.31 62.62 51.1 92.81 42.22 83.93 71.43 53.74 80.31 62.62"/><polygon class="cls-1" points="122.31 19.23 88.92 53.74 80.04 44.86 104.83 19.23 122.31 19.23"/><path class="cls-1" d="M190,108.52q-5,1.16-10.73,2a75,75,0,0,1-11.3.86,70.1,70.1,0,0,1-16.21-1.65,24.21,24.21,0,0,1-11.23-5.84,25.79,25.79,0,0,1-6.62-11.23q-2.24-7.05-2.24-17.86t2.74-18.15A29.47,29.47,0,0,1,142,45.06,26.66,26.66,0,0,1,153.67,39a64,64,0,0,1,15.41-1.73,82.28,82.28,0,0,1,11.09.72,89.08,89.08,0,0,1,10.37,2L189,52.64A68.78,68.78,0,0,0,180,51a81.87,81.87,0,0,0-9.65-.51,38.87,38.87,0,0,0-9,.94A14.46,14.46,0,0,0,154.6,55a16.49,16.49,0,0,0-4.24,7.27,40.86,40.86,0,0,0-1.44,12,47,47,0,0,0,1.22,12A16.6,16.6,0,0,0,154,93.54a13.25,13.25,0,0,0,6.62,3.75,40.8,40.8,0,0,0,9.79,1,66.1,66.1,0,0,0,9-.65,86.06,86.06,0,0,0,9.29-1.8Z" transform="translate(0 0)"/><path class="cls-1" d="M272.92,73.81q0,11.1-2.3,18.44A29,29,0,0,1,264,104a23.78,23.78,0,0,1-10.42,6.19,48.63,48.63,0,0,1-13.73,1.8,52.75,52.75,0,0,1-13.93-1.66,22,22,0,0,1-10.14-5.83,27,27,0,0,1-6.25-11.38q-2.16-7.2-2.15-18.29t2.3-18.43a29.11,29.11,0,0,1,6.53-11.74,23.26,23.26,0,0,1,10.28-6.19,48.4,48.4,0,0,1,13.8-1.8,53.24,53.24,0,0,1,13.94,1.65,22.63,22.63,0,0,1,10.2,5.83,26.53,26.53,0,0,1,6.32,11.38Q272.92,62.72,272.92,73.81Zm-17.29.58a65.19,65.19,0,0,0-.94-12.24,19.33,19.33,0,0,0-2.89-7.49,9.91,9.91,0,0,0-4.92-3.75,21.61,21.61,0,0,0-6.87-1,20.24,20.24,0,0,0-6.73,1,10.52,10.52,0,0,0-4.85,3.68A17.18,17.18,0,0,0,225.54,62a69.79,69.79,0,0,0-.87,12.25,71.46,71.46,0,0,0,.87,12.31,18.1,18.1,0,0,0,2.89,7.56,10.31,10.31,0,0,0,4.85,3.74,23.58,23.58,0,0,0,13.67,0,10,10,0,0,0,4.85-3.67,18.61,18.61,0,0,0,2.89-7.49A65.93,65.93,0,0,0,255.63,74.39Z" transform="translate(0 0)"/><path class="cls-1" d="M334.27,102.62a72.86,72.86,0,0,1-11,6.26,30.49,30.49,0,0,1-22.25.79,17.65,17.65,0,0,1-7.85-5.9,30.26,30.26,0,0,1-5-11.09,69.77,69.77,0,0,1-1.8-17.28,55.38,55.38,0,0,1,2.45-17.72,33.25,33.25,0,0,1,6.55-11.74A24.09,24.09,0,0,1,305,39.39a34,34,0,0,1,11.81-2,34.81,34.81,0,0,1,8.57,1,31.22,31.22,0,0,1,7.56,3l.14-.15c-.19-2.67-.36-5.23-.5-7.7s-.22-5-.22-7.56V3.67H349.6V110H335.42Zm-2-48a35.76,35.76,0,0,0-6.33-2.88,20.36,20.36,0,0,0-6.48-1,17.54,17.54,0,0,0-6,1,11.56,11.56,0,0,0-5,3.76,20.12,20.12,0,0,0-3.53,7.37,45.31,45.31,0,0,0-1.3,12,61.29,61.29,0,0,0,.87,11.48,19.5,19.5,0,0,0,2.5,7,8.29,8.29,0,0,0,4,3.39,15.13,15.13,0,0,0,5.33.87,17.35,17.35,0,0,0,7.49-1.77,56,56,0,0,0,8.49-5.15Z" transform="translate(0 0)"/><path class="cls-1" d="M367.39,97.14h26.79V51.63H368.26v-13h43.2V97.14h19.59V110H367.39Zm46.24-81.51a18.5,18.5,0,0,1-.51,4.75,6.24,6.24,0,0,1-1.73,3A6.7,6.7,0,0,1,408.08,25a27.15,27.15,0,0,1-5.4.43,27.2,27.2,0,0,1-5.33-.43,7.23,7.23,0,0,1-3.46-1.59,5.53,5.53,0,0,1-1.72-3,21.66,21.66,0,0,1-.44-4.75,21.64,21.64,0,0,1,.44-4.68,5.23,5.23,0,0,1,1.72-3,8.94,8.94,0,0,1,3.46-1.65,20.79,20.79,0,0,1,5.33-.58,20.46,20.46,0,0,1,5.4.58A8.07,8.07,0,0,1,411.39,8a5.82,5.82,0,0,1,1.73,3A18.63,18.63,0,0,1,413.63,15.63Z" transform="translate(0 0)"/><path class="cls-1" d="M514.3,49.47l-10.95,1.16A16.85,16.85,0,0,1,505.73,55a19.09,19.09,0,0,1,.93,6.62q0,13.4-7.42,19.3t-23,5.91a27,27,0,0,1-5-.37,18.11,18.11,0,0,1-3.39-.93,6.79,6.79,0,0,0-2.45,2.16,4.85,4.85,0,0,0-.72,2.59A6.78,6.78,0,0,0,465,92a2.55,2.55,0,0,0,1.22,1.51A16.89,16.89,0,0,0,469,94.84a36.59,36.59,0,0,0,4.82,1.44c3.56.67,7.13,1.37,10.74,2.09s6.83,1.42,9.72,2.09a49.77,49.77,0,0,1,7.7,2.59,16.72,16.72,0,0,1,5.26,3.53,12.64,12.64,0,0,1,2.95,5,23.33,23.33,0,0,1,.94,7,22.75,22.75,0,0,1-2,9.58,19.32,19.32,0,0,1-6.19,7.49,33.31,33.31,0,0,1-10.73,5,58.25,58.25,0,0,1-15.77,1.87,72.45,72.45,0,0,1-15.2-1.37,30.44,30.44,0,0,1-10.22-4,15,15,0,0,1-5.69-6.48A21,21,0,0,1,443.6,122a16.79,16.79,0,0,1,1.08-6.19A18.76,18.76,0,0,1,447.4,111a19.78,19.78,0,0,1,3.81-3.67,35.37,35.37,0,0,1,4.32-2.74,14,14,0,0,1-5.68-4.46,12.73,12.73,0,0,1,0-13.54,17.67,17.67,0,0,1,5.4-5,20,20,0,0,1-6.13-7.42q-2.22-4.53-2.23-12.45,0-13.11,7.35-19.09t22.47-6a59.53,59.53,0,0,1,8.85.57,46,46,0,0,1,6.56,1.44H514.3ZM485.64,112l-7.5-1.45c-2.59-.5-5.47-1.08-8.64-1.72a24.18,24.18,0,0,0-6.5,4.37,9.38,9.38,0,0,0-2.81,7.13,11.58,11.58,0,0,0,.8,4.39A7.13,7.13,0,0,0,463.6,128a14.74,14.74,0,0,0,5.11,2,38.35,38.35,0,0,0,8.14.72,32.81,32.81,0,0,0,8.14-.87,17,17,0,0,0,5.47-2.32,8.89,8.89,0,0,0,3-3.41,9.43,9.43,0,0,0,.94-4.14,6.53,6.53,0,0,0-1.94-5Q490.53,113.14,485.64,112Zm4.46-50.34a20.08,20.08,0,0,0-.87-6.44,10,10,0,0,0-2.44-4.06,9.72,9.72,0,0,0-4.18-2.24,22.88,22.88,0,0,0-6.05-.72,24.74,24.74,0,0,0-6,.65,8.67,8.67,0,0,0-4.1,2.24,10,10,0,0,0-2.38,4.13,21.28,21.28,0,0,0-.79,6.3,22.09,22.09,0,0,0,.79,6.37,10.55,10.55,0,0,0,2.38,4.27,9,9,0,0,0,4.18,2.39,22.51,22.51,0,0,0,6,.72,21.72,21.72,0,0,0,6-.72,9.17,9.17,0,0,0,4.11-2.32,10.47,10.47,0,0,0,2.44-4.2,20.37,20.37,0,0,0,.91-6.39Z" transform="translate(0 0)"/><path class="cls-1" d="M521.78,38.67h12.68l.86,7.2a35.63,35.63,0,0,1,6.91-6.12,14.84,14.84,0,0,1,8.36-2.38,12.59,12.59,0,0,1,7.92,2.45,14.18,14.18,0,0,1,4.61,6.2,36,36,0,0,1,7-6.27,14.84,14.84,0,0,1,8.36-2.38,15.34,15.34,0,0,1,5.61,1,10.75,10.75,0,0,1,4.47,3.32,17.12,17.12,0,0,1,3,5.76,28.05,28.05,0,0,1,1.08,8.35V110H577.52V59.27a29.71,29.71,0,0,0-.22-4,6.63,6.63,0,0,0-.79-2.52,3.94,3.94,0,0,0-1.3-1.36,3.25,3.25,0,0,0-1.72-.44,5.84,5.84,0,0,0-3.75,1.59,48.45,48.45,0,0,0-5,5.33V110h-15V59.27a22.31,22.31,0,0,0-.29-4,7.32,7.32,0,0,0-.86-2.52,3.94,3.94,0,0,0-1.3-1.36,3.25,3.25,0,0,0-1.72-.44,5.84,5.84,0,0,0-3.75,1.59,48.45,48.45,0,0,0-5,5.33V110h-15Z" transform="translate(0 0)"/><path class="cls-1" d="M648.52,60.85q0-5.19-3.31-7.78t-11-2.59a84.8,84.8,0,0,0-10.8.72q-5.61.72-11.09,1.87L610.79,40.4a121,121,0,0,1,12.81-2.3,105.66,105.66,0,0,1,13.54-.87,56.43,56.43,0,0,1,13.4,1.37,22.76,22.76,0,0,1,8.85,4.1,15.4,15.4,0,0,1,4.9,7.06A31.2,31.2,0,0,1,665.8,60v50H651.4l-1-6.62A75.64,75.64,0,0,1,638.8,109a35.89,35.89,0,0,1-13,2.37q-9.81,0-16.06-5.18t-6.27-15.84a25.82,25.82,0,0,1,1.87-10.09,17.14,17.14,0,0,1,6.27-7.49,32.83,32.83,0,0,1,11.59-4.6,83.6,83.6,0,0,1,17.72-1.59h7.63Zm-7.2,17a75,75,0,0,0-10.8.64,21,21,0,0,0-6.92,2.09,8.24,8.24,0,0,0-3.6,3.53,11.33,11.33,0,0,0-1,5c0,3.36.93,5.79,2.8,7.27s4.49,2.23,7.85,2.23a23.9,23.9,0,0,0,9-1.69,70.16,70.16,0,0,0,9.87-5.07v-14Z" transform="translate(0 0)"/></svg>