<svg id="Capa_1" data-name="Capa 1" xmlns="http://www.w3.org/2000/svg" viewBox="0 0 852 316"><defs><style>.cls-1{fill:#464445;stroke:#464445;}.cls-1,.cls-3,.cls-4{stroke-miterlimit:10;}.cls-2{fill:#efcb4b;}.cls-3,.cls-4{fill:none;stroke:#efcb4b;stroke-width:2px;}.cls-4{stroke-linecap:round;}.cls-5{fill:#fff;}</style></defs><title>PortadaSoftEscritorio1</title><rect class="cls-1" x="0.5" y="0.5" width="851" height="315"/><polygon class="cls-2" points="27.21 276.65 25.25 278.62 22.1 275.48 17.39 270.76 21.32 270.76 27.21 276.65"/><polygon class="cls-2" points="37.83 287.27 29.18 295.92 27.21 297.88 26.03 299.06 21.32 303.78 17.39 303.78 22.1 299.06 25.25 295.92 26.03 295.13 27.21 293.95 29.96 291.2 33.9 287.27 27.21 280.59 28.39 279.41 29.18 278.62 29.96 279.41 31.41 280.85 33.41 282.85 37.83 287.27"/><polygon class="cls-2" points="37.04 270.76 32.32 275.48 29.18 278.62 28.39 279.41 27.21 280.59 24.46 283.34 20.53 287.27 22.9 289.64 24.9 291.64 27.21 293.95 26.03 295.13 25.25 295.92 24.46 295.13 22.97 293.63 20.97 291.64 16.6 287.27 25.25 278.62 27.21 276.65 33.11 270.76 37.04 270.76"/><polygon class="cls-2" points="37.04 303.78 33.11 303.78 28.39 299.06 27.21 297.88 29.18 295.92 32.32 299.06 37.04 303.78"/><polygon class="cls-2" points="20.97 291.64 22.97 293.63 17.33 299.46 13.4 299.46 20.97 291.64"/><polygon class="cls-2" points="31.47 284.85 24.9 291.64 22.9 289.64 29.47 282.85 31.47 284.85"/><polygon class="cls-2" points="40.92 275.08 33.41 282.85 31.41 280.85 36.99 275.08 40.92 275.08"/><path class="cls-2" d="M45.18,289.1l-.72.13a4.87,4.87,0,0,1-.76.06,4.79,4.79,0,0,1-1.08-.11,1.68,1.68,0,0,1-.75-.39,1.75,1.75,0,0,1-.45-.75,4.08,4.08,0,0,1-.15-1.2,3.33,3.33,0,0,1,.19-1.22,1.94,1.94,0,0,1,.5-.77,1.81,1.81,0,0,1,.79-.41,4.1,4.1,0,0,1,1-.12,5.87,5.87,0,0,1,.74.05,5.42,5.42,0,0,1,.7.14l-.11.84c-.21-.05-.4-.08-.6-.11a6.25,6.25,0,0,0-.64,0,2.8,2.8,0,0,0-.61.06,1,1,0,0,0-.45.24,1.11,1.11,0,0,0-.28.49,2.56,2.56,0,0,0-.1.8,3.5,3.5,0,0,0,.08.81,1.11,1.11,0,0,0,.26.48.84.84,0,0,0,.44.25,2.52,2.52,0,0,0,.66.07,4.22,4.22,0,0,0,.6,0,6.18,6.18,0,0,0,.62-.12Z" transform="translate(0.5 0.5)"/><path class="cls-2" d="M50.73,286.77a4.33,4.33,0,0,1-.15,1.24,1.81,1.81,0,0,1-.45.78,1.54,1.54,0,0,1-.69.42,3.26,3.26,0,0,1-.92.12,3.65,3.65,0,0,1-.93-.11,1.58,1.58,0,0,1-.68-.39,1.68,1.68,0,0,1-.42-.77,4.92,4.92,0,0,1,0-2.45,1.94,1.94,0,0,1,.44-.79,1.44,1.44,0,0,1,.68-.41,2.94,2.94,0,0,1,.93-.13,3.28,3.28,0,0,1,.93.12,1.4,1.4,0,0,1,.68.39,1.75,1.75,0,0,1,.43.76A4.6,4.6,0,0,1,50.73,286.77Zm-1.16,0a4.59,4.59,0,0,0-.06-.82,1.37,1.37,0,0,0-.19-.5.67.67,0,0,0-.33-.25,1.31,1.31,0,0,0-.46-.07,1.18,1.18,0,0,0-.45.07.71.71,0,0,0-.33.24,1.22,1.22,0,0,0-.19.5,4.59,4.59,0,0,0-.06.82,4.51,4.51,0,0,0,.06.82,1.21,1.21,0,0,0,.19.51.67.67,0,0,0,.33.25,1.24,1.24,0,0,0,.46.07,1.25,1.25,0,0,0,.45-.07.65.65,0,0,0,.33-.24,1.36,1.36,0,0,0,.19-.51A4.51,4.51,0,0,0,49.57,286.81Z" transform="translate(0.5 0.5)"/><path class="cls-2" d="M54.84,288.7a4.63,4.63,0,0,1-.74.42,1.94,1.94,0,0,1-.8.17,1.92,1.92,0,0,1-.69-.12,1.16,1.16,0,0,1-.52-.39,2,2,0,0,1-.34-.74,4.75,4.75,0,0,1-.12-1.16,3.72,3.72,0,0,1,.16-1.19,2.24,2.24,0,0,1,.44-.78,1.54,1.54,0,0,1,.64-.44,2.3,2.3,0,0,1,.79-.14,2.63,2.63,0,0,1,.58.07,2.37,2.37,0,0,1,.5.2h0l0-.51c0-.17,0-.34,0-.51v-1.49h1.16v7.11h-.94Zm-.14-3.21a2,2,0,0,0-.42-.19,1.21,1.21,0,0,0-.43-.07,1,1,0,0,0-.4.07.74.74,0,0,0-.34.25,1.4,1.4,0,0,0-.24.49,3,3,0,0,0-.08.8,4.05,4.05,0,0,0,.05.77,1.5,1.5,0,0,0,.17.47.51.51,0,0,0,.27.22,1,1,0,0,0,.35.06,1.34,1.34,0,0,0,.51-.11,4.39,4.39,0,0,0,.56-.35Z" transform="translate(0.5 0.5)"/><path class="cls-2" d="M57.06,288.33h1.79v-3H57.11v-.87H60v3.91h1.31v.86H57.06Zm3.09-5.45a1.35,1.35,0,0,1,0,.31.37.37,0,0,1-.12.21.45.45,0,0,1-.22.1,1.73,1.73,0,0,1-.36,0,1.86,1.86,0,0,1-.36,0,.54.54,0,0,1-.23-.1.31.31,0,0,1-.11-.21,1.35,1.35,0,0,1,0-.31,1.45,1.45,0,0,1,0-.32.31.31,0,0,1,.11-.2.7.7,0,0,1,.23-.11,1.28,1.28,0,0,1,.36,0,1.19,1.19,0,0,1,.36,0,.57.57,0,0,1,.22.11.37.37,0,0,1,.12.2A1.45,1.45,0,0,1,60.15,282.88Z" transform="translate(0.5 0.5)"/><path class="cls-2" d="M66.89,285.14l-.73.08a1.15,1.15,0,0,1,.16.29,1.33,1.33,0,0,1,.06.44,1.52,1.52,0,0,1-.5,1.29,2.39,2.39,0,0,1-1.53.4l-.34,0a1.14,1.14,0,0,1-.22-.07.65.65,0,0,0-.17.15.33.33,0,0,0,0,.17.49.49,0,0,0,0,.12.19.19,0,0,0,.08.1l.19.09.32.1.72.14c.24,0,.46.09.65.14a4,4,0,0,1,.52.17,1,1,0,0,1,.35.24.79.79,0,0,1,.2.33,1.63,1.63,0,0,1,.06.47,1.5,1.5,0,0,1-.14.64,1.17,1.17,0,0,1-.41.5,2.41,2.41,0,0,1-.72.34,4,4,0,0,1-1,.12,5,5,0,0,1-1-.09,2,2,0,0,1-.69-.27,1,1,0,0,1-.38-.43,1.54,1.54,0,0,1-.11-.58,1.07,1.07,0,0,1,.07-.41,1.74,1.74,0,0,1,.18-.33,1.48,1.48,0,0,1,.26-.24,2.29,2.29,0,0,1,.29-.18.91.91,0,0,1-.38-.3.77.77,0,0,1-.13-.47.76.76,0,0,1,.13-.44,1.08,1.08,0,0,1,.36-.34,1.4,1.4,0,0,1-.41-.49,1.94,1.94,0,0,1-.15-.84,1.56,1.56,0,0,1,.49-1.28,2.41,2.41,0,0,1,1.51-.4,5,5,0,0,1,.59,0,3.64,3.64,0,0,1,.44.1h1.48ZM65,289.33l-.5-.1-.58-.11a1.6,1.6,0,0,0-.44.29.65.65,0,0,0-.18.48.68.68,0,0,0,0,.29.42.42,0,0,0,.18.22.89.89,0,0,0,.34.13,2.68,2.68,0,0,0,.54.05,2.15,2.15,0,0,0,.55-.06,1.42,1.42,0,0,0,.37-.15.62.62,0,0,0,.2-.23.67.67,0,0,0,.06-.28.42.42,0,0,0-.13-.33A1,1,0,0,0,65,289.33Zm.3-3.37a1.27,1.27,0,0,0-.06-.43.59.59,0,0,0-.16-.28.82.82,0,0,0-.28-.15,1.64,1.64,0,0,0-.4,0,1.54,1.54,0,0,0-.4,0,.58.58,0,0,0-.28.15.69.69,0,0,0-.16.28,1.79,1.79,0,0,0,0,.84.73.73,0,0,0,.16.29.59.59,0,0,0,.28.16,1.64,1.64,0,0,0,.41.05,1.62,1.62,0,0,0,.4-.05.59.59,0,0,0,.27-.15.68.68,0,0,0,.16-.29A1.29,1.29,0,0,0,65.27,286Z" transform="translate(0.5 0.5)"/><path class="cls-2" d="M67.39,284.42h.85l.06.48a2.47,2.47,0,0,1,.46-.41,1,1,0,0,1,.56-.16.84.84,0,0,1,.53.17.9.9,0,0,1,.31.41,2.58,2.58,0,0,1,.47-.42,1,1,0,0,1,.56-.16,1.17,1.17,0,0,1,.38.07.89.89,0,0,1,.3.22,1,1,0,0,1,.19.39,1.79,1.79,0,0,1,.08.56v3.62h-1V285.8a2.1,2.1,0,0,0,0-.27.58.58,0,0,0,0-.17l-.09-.09a.21.21,0,0,0-.12,0,.4.4,0,0,0-.25.1l-.33.36v3.49h-1V285.8a1.06,1.06,0,0,0,0-.27.58.58,0,0,0,0-.17l-.09-.09a.21.21,0,0,0-.12,0,.4.4,0,0,0-.25.1l-.33.36v3.49h-1Z" transform="translate(0.5 0.5)"/><path class="cls-2" d="M75.88,285.9a.65.65,0,0,0-.22-.52,1.28,1.28,0,0,0-.74-.17,6.09,6.09,0,0,0-.72.05c-.25,0-.5.07-.74.12l-.11-.84a7.3,7.3,0,0,1,.86-.16,6.84,6.84,0,0,1,.91-.06,3.75,3.75,0,0,1,.89.09,1.67,1.67,0,0,1,.6.28,1,1,0,0,1,.32.47,2,2,0,0,1,.11.69v3.34h-1l-.07-.44a5,5,0,0,1-.77.38,2.37,2.37,0,0,1-.88.16,1.64,1.64,0,0,1-1.07-.35,1.29,1.29,0,0,1-.42-1.06,1.6,1.6,0,0,1,.13-.67,1.06,1.06,0,0,1,.42-.5,2,2,0,0,1,.77-.31,5.67,5.67,0,0,1,1.19-.11h.51ZM75.4,287a4.91,4.91,0,0,0-.73,0,1.14,1.14,0,0,0-.46.14.49.49,0,0,0-.24.23.7.7,0,0,0-.07.33.57.57,0,0,0,.19.49.84.84,0,0,0,.53.15,1.73,1.73,0,0,0,.6-.11,5.25,5.25,0,0,0,.66-.34V287Z" transform="translate(0.5 0.5)"/><rect class="cls-3" x="336.11" y="36.24" width="344.92" height="208.79" rx="6.27" ry="6.27"/><rect class="cls-3" x="348.22" y="47.94" width="319.86" height="183.73"/><polygon class="cls-3" points="474.33 245.03 464.31 280.11 451.57 285.75 565.57 285.75 553.25 280.32 543.43 245.03 474.33 245.03"/><circle class="cls-3" cx="618.86" cy="195.71" r="27.17"/><circle class="cls-3" cx="618.86" cy="195.71" r="12.81"/><line class="cls-3" x1="618.86" y1="168.54" x2="618.86" y2="182.91"/><line class="cls-3" x1="606.06" y1="197.98" x2="591.69" y2="195.71"/><line class="cls-3" x1="625.39" y1="206.73" x2="631.67" y2="219.68"/><rect class="cls-3" x="577.05" y="97.77" width="81.29" height="35.08"/><rect class="cls-3" x="402.23" y="175.72" width="170.37" height="37.48"/><rect class="cls-3" x="354.34" y="73.83" width="38.97" height="149.06"/><line class="cls-3" x1="348.22" y1="69.37" x2="668.08" y2="69.37"/><circle class="cls-3" cx="354.34" cy="53.78" r="3.34"/><circle class="cls-3" cx="364.23" cy="53.78" r="3.34"/><circle class="cls-3" cx="373.83" cy="53.78" r="3.34"/><rect class="cls-3" x="383.3" y="59.17" width="153.67" height="6.31"/><rect class="cls-4" x="543.09" y="57.96" width="106.06" height="7.52" rx="3.53" ry="3.53"/><path class="cls-5" d="M160.22,140.86q2.64.66,5.07,1a35.75,35.75,0,0,0,5.24.36q5.34,0,7.83-2a6.4,6.4,0,0,0,2.49-5.3,7.61,7.61,0,0,0-.39-2.58,5.42,5.42,0,0,0-1.5-2.1,15.23,15.23,0,0,0-3.06-2.06q-2-1.05-5.07-2.55T165.41,123a15.5,15.5,0,0,1-3.51-2.58,7.65,7.65,0,0,1-1.86-3,13,13,0,0,1-.54-4,10.52,10.52,0,0,1,.84-4.26,8.32,8.32,0,0,1,2.58-3.27,13.26,13.26,0,0,1,4.45-2.13,23.71,23.71,0,0,1,6.5-.78,32.41,32.41,0,0,1,5.11.38,33.73,33.73,0,0,1,4.39,1l-.6,3.66c-1.45-.36-2.86-.65-4.24-.87a30.87,30.87,0,0,0-4.79-.33,18.71,18.71,0,0,0-4.45.45,8.7,8.7,0,0,0-3,1.28,5,5,0,0,0-1.71,2,5.88,5.88,0,0,0-.54,2.52,7.49,7.49,0,0,0,.36,2.43,5.06,5.06,0,0,0,1.44,2,15.87,15.87,0,0,0,2.95,2q1.86,1,4.93,2.43c2.28,1.08,4.17,2,5.65,2.88a16.62,16.62,0,0,1,3.61,2.64,8,8,0,0,1,2,3,12.35,12.35,0,0,1,.57,4,11.69,11.69,0,0,1-1,4.8,9.48,9.48,0,0,1-2.83,3.63,13.8,13.8,0,0,1-4.69,2.31,23.29,23.29,0,0,1-6.61.84,35.23,35.23,0,0,1-5.47-.41,43.84,43.84,0,0,1-5.23-1.15Z" transform="translate(0.5 0.5)"/><path class="cls-5" d="M218.28,130.54a26.53,26.53,0,0,1-.93,7.65,11.84,11.84,0,0,1-2.63,4.8,9.36,9.36,0,0,1-4.13,2.49,19.25,19.25,0,0,1-5.48.72,19.63,19.63,0,0,1-5.44-.69,8.87,8.87,0,0,1-4-2.4,11.36,11.36,0,0,1-2.55-4.71,27.08,27.08,0,0,1-.89-7.62,26.48,26.48,0,0,1,.92-7.67,11.74,11.74,0,0,1,2.64-4.77,9.25,9.25,0,0,1,4.13-2.49,18.94,18.94,0,0,1,5.41-.72,20.55,20.55,0,0,1,5.45.66,8.82,8.82,0,0,1,4.07,2.4,11.53,11.53,0,0,1,2.57,4.71A27,27,0,0,1,218.28,130.54Zm-4.68.18a26.25,26.25,0,0,0-.57-6.08,8.87,8.87,0,0,0-1.66-3.6,5.28,5.28,0,0,0-2.65-1.74,12.8,12.8,0,0,0-3.55-.45,12.61,12.61,0,0,0-3.49.45,5.23,5.23,0,0,0-2.62,1.71,8.85,8.85,0,0,0-1.62,3.57,25.32,25.32,0,0,0-.58,6,25.75,25.75,0,0,0,.58,6.06,8.88,8.88,0,0,0,1.65,3.63,5.33,5.33,0,0,0,2.62,1.74,12.53,12.53,0,0,0,3.52.45,12.8,12.8,0,0,0,3.55-.45,5.19,5.19,0,0,0,2.62-1.71,8.85,8.85,0,0,0,1.63-3.57A26,26,0,0,0,213.6,130.72Z" transform="translate(0.5 0.5)"/><path class="cls-5" d="M234.23,119.57h-9.54V116h9.54v-4.86a14.43,14.43,0,0,1,.72-4.8,8.38,8.38,0,0,1,2.16-3.39,9,9,0,0,1,3.63-2,18.09,18.09,0,0,1,5.19-.66c1.16,0,2.25.06,3.27.15a24.82,24.82,0,0,1,2.9.45l-.54,3.54a19.62,19.62,0,0,0-2.56-.33c-.9-.06-1.88-.09-2.92-.09a7.79,7.79,0,0,0-5.36,1.62q-1.82,1.62-1.81,5.28V116h12.48v3.6H238.91v25.79h-4.68Z" transform="translate(0.5 0.5)"/><path class="cls-5" d="M265.84,116v-9.9l4.68-.72V116h13.79v3.6H270.52V136a11.35,11.35,0,0,0,.3,2.79,3.85,3.85,0,0,0,1.11,1.92,5.12,5.12,0,0,0,2.17,1.11,13.59,13.59,0,0,0,3.41.36,18.51,18.51,0,0,0,4.06-.39c1.15-.26,2-.49,2.62-.69l.48,3.48q-1.14.36-3.21.81a23.51,23.51,0,0,1-4.94.45,21.15,21.15,0,0,1-5-.51,7.74,7.74,0,0,1-3.3-1.62,6.17,6.17,0,0,1-1.8-2.73,12.18,12.18,0,0,1-.54-3.84V119.57h-8.4V116Z" transform="translate(0.5 0.5)"/><path class="cls-5" d="M288.21,116h4.56l3,17.21c.27,1.48.51,2.89.71,4.23s.38,2.77.54,4.29h.18q.3-1.5.57-2.7t.57-2.64l3.18-14h5.52l3.17,14q.36,1.32.6,2.52t.54,2.82h.18c.2-1.52.4-2.95.58-4.29s.41-2.75.69-4.23L315.92,116h4.44l-5.66,29.39h-6.13l-3.17-14c-.16-.8-.34-1.61-.54-2.42s-.38-1.71-.54-2.67h-.18c-.16.92-.32,1.77-.48,2.54s-.34,1.63-.54,2.55l-3.18,14h-6.11Z" transform="translate(0.5 0.5)"/><path class="cls-5" d="M343.75,124.61a5.09,5.09,0,0,0-1.65-4.14q-1.65-1.38-5.13-1.38a38.2,38.2,0,0,0-4.49.27,40.38,40.38,0,0,0-4.56.81l-.42-3.54a43,43,0,0,1,5-.93,41.42,41.42,0,0,1,5.27-.33,18.21,18.21,0,0,1,4.86.57,8.33,8.33,0,0,1,3.33,1.71,6.7,6.7,0,0,1,1.89,2.82,11.58,11.58,0,0,1,.6,3.9v21h-3.9l-.3-2.82a42,42,0,0,1-5.19,2.4,15.7,15.7,0,0,1-5.66,1,10,10,0,0,1-6.48-2q-2.52-2-2.52-6.36a10.47,10.47,0,0,1,.75-4.11,7,7,0,0,1,2.58-3,13.32,13.32,0,0,1,4.83-1.88,36.87,36.87,0,0,1,7.43-.63h3.78Zm-3.6,6.59a35.49,35.49,0,0,0-5.6.36,10.67,10.67,0,0,0-3.51,1.11,4.15,4.15,0,0,0-1.83,1.89,6.41,6.41,0,0,0-.51,2.64,4.78,4.78,0,0,0,1.5,4,6.35,6.35,0,0,0,4.08,1.2,13.25,13.25,0,0,0,4.61-.79,33.7,33.7,0,0,0,4.86-2.33v-8Z" transform="translate(0.5 0.5)"/><path class="cls-5" d="M369.6,119.93a31.55,31.55,0,0,1,5-3.51,10.16,10.16,0,0,1,5-1.29,13.5,13.5,0,0,1,2.82.27,11.43,11.43,0,0,1,2.52.87l-1,4.5a9.56,9.56,0,0,0-2.31-1,10.18,10.18,0,0,0-2.85-.36,7.28,7.28,0,0,0-2,.27,10.84,10.84,0,0,0-2,.81,20.54,20.54,0,0,0-2.19,1.32q-1.14.78-2.58,1.86v18.11H380v3.6h-23v-3.6h8.21V119.57h-7.85V116h11.81Z" transform="translate(0.5 0.5)"/><path class="cls-5" d="M414.53,144.52a38.06,38.06,0,0,1-4.83,1,37.24,37.24,0,0,1-5.61.39,23.72,23.72,0,0,1-5.55-.6,9.27,9.27,0,0,1-4.23-2.22,10.24,10.24,0,0,1-2.66-4.59,26.33,26.33,0,0,1-.93-7.77,25.66,25.66,0,0,1,1-7.67,11.5,11.5,0,0,1,2.72-4.77,9.76,9.76,0,0,1,4.23-2.49,19.4,19.4,0,0,1,5.46-.72,17.83,17.83,0,0,1,5,.63,8.27,8.27,0,0,1,3.66,2.16,9.33,9.33,0,0,1,2.22,4.17,26.12,26.12,0,0,1,.72,6.72v1.34q0,.63-.06,1.47H395.39a19.6,19.6,0,0,0,.64,5.58,7,7,0,0,0,1.83,3.21,6.08,6.08,0,0,0,3,1.47,20.91,20.91,0,0,0,4.12.36,29.36,29.36,0,0,0,4.81-.36c1.45-.24,2.87-.54,4.28-.9Zm-3.24-16.19a18.62,18.62,0,0,0-.51-4.8,7,7,0,0,0-1.48-2.91,4.91,4.91,0,0,0-2.35-1.44,11.5,11.5,0,0,0-3.13-.39,12.62,12.62,0,0,0-3.34.42,5.82,5.82,0,0,0-2.62,1.5,7.49,7.49,0,0,0-1.71,2.91,16.52,16.52,0,0,0-.76,4.71Z" transform="translate(0.5 0.5)"/><path class="cls-5" d="M293.48,193.27a30.69,30.69,0,0,1-4.89,2.63,13.09,13.09,0,0,1-5.12,1,12.92,12.92,0,0,1-4.39-.71,7.28,7.28,0,0,1-3.29-2.4,12.3,12.3,0,0,1-2.07-4.53,29.29,29.29,0,0,1-.74-7.17,22.32,22.32,0,0,1,1-7.29,12.56,12.56,0,0,1,2.78-4.73,10.39,10.39,0,0,1,4-2.58,14.39,14.39,0,0,1,4.77-.8,14,14,0,0,1,4,.56,21.81,21.81,0,0,1,3.58,1.45l.06-.06c-.08-1.26-.14-2.45-.18-3.58s-.06-2.24-.06-3.35v-9.12h4.62v43.72h-3.79ZM293,172.53a28.69,28.69,0,0,0-3.4-1.55,10.29,10.29,0,0,0-3.53-.58,10,10,0,0,0-3.14.51,6.19,6.19,0,0,0-2.72,1.8,9.57,9.57,0,0,0-1.9,3.56,19.29,19.29,0,0,0-.71,5.68,26.26,26.26,0,0,0,.5,5.63,9.29,9.29,0,0,0,1.4,3.41,4.69,4.69,0,0,0,2.16,1.69,8.49,8.49,0,0,0,2.93.47,9.83,9.83,0,0,0,4-.86,29.6,29.6,0,0,0,4.44-2.52Z" transform="translate(0.5 0.5)"/><path class="cls-5" d="M329.85,195.52a38.88,38.88,0,0,1-4.77,1,37.67,37.67,0,0,1-5.54.38,23.73,23.73,0,0,1-5.48-.59,9.2,9.2,0,0,1-4.17-2.19,10.18,10.18,0,0,1-2.64-4.54,26.36,26.36,0,0,1-.92-7.67,25.43,25.43,0,0,1,.95-7.58,11.56,11.56,0,0,1,2.69-4.71,9.78,9.78,0,0,1,4.18-2.46,19.32,19.32,0,0,1,5.39-.71,17.78,17.78,0,0,1,4.92.62,8.21,8.21,0,0,1,3.61,2.14,9.13,9.13,0,0,1,2.19,4.11A25.51,25.51,0,0,1,331,180v1.33c0,.42,0,.9-.06,1.45H311a19.53,19.53,0,0,0,.63,5.51,6.89,6.89,0,0,0,1.81,3.17,5.92,5.92,0,0,0,2.94,1.45,20.38,20.38,0,0,0,4.07.36,28.69,28.69,0,0,0,4.75-.36c1.43-.23,2.84-.53,4.22-.89Zm-3.2-16a18.59,18.59,0,0,0-.5-4.73,7,7,0,0,0-1.46-2.88,5,5,0,0,0-2.32-1.42,11.27,11.27,0,0,0-3.09-.38,12.33,12.33,0,0,0-3.3.41,5.78,5.78,0,0,0-2.59,1.48,7.36,7.36,0,0,0-1.69,2.87,16.58,16.58,0,0,0-.75,4.65Z" transform="translate(0.5 0.5)"/><path class="cls-5" d="M372.92,155.18h22.92V159h-18.3v14.22h16.94v3.67H377.54v15.7h18.3v3.79H372.92Z" transform="translate(0.5 0.5)"/><path class="cls-5" d="M405.73,192.26c1.54.36,3.12.64,4.74.86a35.21,35.21,0,0,0,4.74.33,19.17,19.17,0,0,0,4.09-.36,8.48,8.48,0,0,0,2.61-1,3.58,3.58,0,0,0,1.42-1.51,4.49,4.49,0,0,0,.41-1.89,4.43,4.43,0,0,0-.35-1.87,3.2,3.2,0,0,0-1.31-1.3,13.21,13.21,0,0,0-2.57-1.1c-1.09-.35-2.5-.77-4.24-1.24s-3.29-1-4.53-1.45a11.57,11.57,0,0,1-3.05-1.6,5.73,5.73,0,0,1-1.75-2.19,7.64,7.64,0,0,1-.56-3.12,6.79,6.79,0,0,1,3.14-6q3.14-2.07,9.24-2.07,1.07,0,2.16.09t2.19.21a21.2,21.2,0,0,1,2.14.32c.69.14,1.35.29,2,.44l-.59,3.44a40.31,40.31,0,0,0-4-.74,31.44,31.44,0,0,0-4.12-.27c-2.8,0-4.79.37-5.95,1.1a3.57,3.57,0,0,0-1.75,3.23,3.43,3.43,0,0,0,.36,1.66,3.38,3.38,0,0,0,1.27,1.21,11.66,11.66,0,0,0,2.46,1.07c1,.33,2.37.72,4,1.15q2.78.78,4.74,1.48a12.15,12.15,0,0,1,3.19,1.66,5.57,5.57,0,0,1,1.81,2.28,8.59,8.59,0,0,1,.56,3.35,7.29,7.29,0,0,1-3.14,6.25q-3.14,2.28-10.18,2.28a39.89,39.89,0,0,1-4.95-.3,36.9,36.9,0,0,1-4.71-.88Z" transform="translate(0.5 0.5)"/><path class="cls-5" d="M460.41,195.76c-1.3.31-2.72.59-4.24.83a30.25,30.25,0,0,1-4.53.35,26.17,26.17,0,0,1-6.31-.68,9.49,9.49,0,0,1-4.44-2.4,10.82,10.82,0,0,1-2.64-4.62,25.38,25.38,0,0,1-.88-7.29,22,22,0,0,1,1.06-7.43,11.43,11.43,0,0,1,3-4.68,10.6,10.6,0,0,1,4.65-2.43,25.22,25.22,0,0,1,6.05-.68,31.18,31.18,0,0,1,4.41.3,35.32,35.32,0,0,1,4.12.82l-.48,3.5a34.15,34.15,0,0,0-3.83-.71,32.71,32.71,0,0,0-4.13-.24,19.59,19.59,0,0,0-4.22.42,6.7,6.7,0,0,0-3.24,1.66A7.92,7.92,0,0,0,442.7,176a19.75,19.75,0,0,0-.71,5.86,21.48,21.48,0,0,0,.62,5.72,8.3,8.3,0,0,0,1.87,3.53,6.14,6.14,0,0,0,3.18,1.74,20.29,20.29,0,0,0,4.55.45,29.59,29.59,0,0,0,3.92-.27,34.41,34.41,0,0,0,3.92-.74Z" transform="translate(0.5 0.5)"/><path class="cls-5" d="M481,171.23a30.85,30.85,0,0,1,4.91-3.46,10,10,0,0,1,4.92-1.28,13.11,13.11,0,0,1,2.78.27,11.16,11.16,0,0,1,2.49.86l-1,4.44a10,10,0,0,0-2.29-1,10.28,10.28,0,0,0-2.81-.35,7.45,7.45,0,0,0-2,.26,11,11,0,0,0-2,.8,20.11,20.11,0,0,0-2.16,1.31q-1.12.77-2.55,1.83v17.89h9.95v3.56H468.58v-3.56h8.12V170.88h-7.76v-3.56h11.67Z" transform="translate(0.5 0.5)"/><path class="cls-5" d="M501.64,192.79h11.85V170.88H501.94v-3.56h16.17v25.47H527v3.56H501.64ZM519,157.61a7.68,7.68,0,0,1-.12,1.48,1.78,1.78,0,0,1-.5.95,2.35,2.35,0,0,1-1,.5,7.31,7.31,0,0,1-1.6.15,7.17,7.17,0,0,1-1.63-.15,2.59,2.59,0,0,1-1-.5,1.69,1.69,0,0,1-.53-.95,7.68,7.68,0,0,1-.12-1.48,7.25,7.25,0,0,1,.12-1.46,1.77,1.77,0,0,1,.53-.94,2.3,2.3,0,0,1,1-.54,7.89,7.89,0,0,1,1.63-.14,8.06,8.06,0,0,1,1.6.14,2.11,2.11,0,0,1,1,.54,1.87,1.87,0,0,1,.5.94A7.25,7.25,0,0,1,519,157.61Z" transform="translate(0.5 0.5)"/><path class="cls-5" d="M541.39,167.32v-9.77l4.62-.71v10.48h13.62v3.56H546v16.23a11.06,11.06,0,0,0,.3,2.75,3.75,3.75,0,0,0,1.1,1.9,4.92,4.92,0,0,0,2.14,1.09,13.17,13.17,0,0,0,3.36.36,18.19,18.19,0,0,0,4-.39,26,26,0,0,0,2.58-.68l.48,3.44c-.75.24-1.81.5-3.17.8a23.75,23.75,0,0,1-4.89.44,21.15,21.15,0,0,1-5-.5,7.67,7.67,0,0,1-3.26-1.6,6.12,6.12,0,0,1-1.78-2.7,12.16,12.16,0,0,1-.53-3.79V170.88H533.1v-3.56Z" transform="translate(0.5 0.5)"/><path class="cls-5" d="M592.16,181.72a26.22,26.22,0,0,1-.92,7.55,11.69,11.69,0,0,1-2.6,4.74,9.27,9.27,0,0,1-4.08,2.46,19.11,19.11,0,0,1-5.41.71,19.51,19.51,0,0,1-5.37-.68,8.88,8.88,0,0,1-4-2.37,11.21,11.21,0,0,1-2.52-4.65,26.85,26.85,0,0,1-.88-7.53,26.25,26.25,0,0,1,.91-7.58,11.69,11.69,0,0,1,2.6-4.71A9.38,9.38,0,0,1,574,167.2a18.93,18.93,0,0,1,5.35-.71,20.49,20.49,0,0,1,5.38.65,8.78,8.78,0,0,1,4,2.37,11.37,11.37,0,0,1,2.54,4.65A26.8,26.8,0,0,1,592.16,181.72Zm-4.62.17a25.66,25.66,0,0,0-.57-6,8.82,8.82,0,0,0-1.63-3.55,5.32,5.32,0,0,0-2.62-1.72,12.58,12.58,0,0,0-3.51-.44,12.33,12.33,0,0,0-3.45.44,5.15,5.15,0,0,0-2.58,1.69,8.67,8.67,0,0,0-1.61,3.52,26,26,0,0,0-.56,6,26.36,26.36,0,0,0,.56,6,8.7,8.7,0,0,0,1.64,3.58,5.25,5.25,0,0,0,2.58,1.72,12.26,12.26,0,0,0,3.48.44,12.58,12.58,0,0,0,3.51-.44,5.22,5.22,0,0,0,2.59-1.69,8.8,8.8,0,0,0,1.6-3.52A25.37,25.37,0,0,0,587.54,181.89Z" transform="translate(0.5 0.5)"/><path class="cls-5" d="M611.29,171.23a31.35,31.35,0,0,1,4.92-3.46,10,10,0,0,1,4.91-1.28,13.2,13.2,0,0,1,2.79.27,11.16,11.16,0,0,1,2.49.86l-1,4.44a9.72,9.72,0,0,0-2.28-1,10.35,10.35,0,0,0-2.82-.35,7.45,7.45,0,0,0-1.95.26,11.25,11.25,0,0,0-2,.8,19.27,19.27,0,0,0-2.17,1.31c-.75.51-1.6,1.12-2.54,1.83v17.89h10v3.56H598.91v-3.56H607V170.88h-7.77v-3.56h11.67Z" transform="translate(0.5 0.5)"/><path class="cls-5" d="M632,192.79h11.85V170.88H632.26v-3.56h16.17v25.47h8.89v3.56H632Zm17.36-35.18a7.68,7.68,0,0,1-.12,1.48,1.72,1.72,0,0,1-.5.95,2.3,2.3,0,0,1-1,.5,8.77,8.77,0,0,1-3.23,0,2.48,2.48,0,0,1-1-.5,1.65,1.65,0,0,1-.54-.95,7.77,7.77,0,0,1-.11-1.48,7.35,7.35,0,0,1,.11-1.46,1.72,1.72,0,0,1,.54-.94,2.22,2.22,0,0,1,1-.54,9.38,9.38,0,0,1,3.23,0,2.07,2.07,0,0,1,1,.54,1.8,1.8,0,0,1,.5.94A7.25,7.25,0,0,1,649.32,157.61Z" transform="translate(0.5 0.5)"/><path class="cls-5" d="M689.9,181.72a26.22,26.22,0,0,1-.92,7.55,11.57,11.57,0,0,1-2.6,4.74,9.27,9.27,0,0,1-4.08,2.46,19,19,0,0,1-5.4.71,19.58,19.58,0,0,1-5.38-.68,8.88,8.88,0,0,1-4-2.37,11.31,11.31,0,0,1-2.51-4.65,26.81,26.81,0,0,1-.89-7.53,26.21,26.21,0,0,1,.92-7.58,11.57,11.57,0,0,1,2.6-4.71,9.27,9.27,0,0,1,4.08-2.46,18.81,18.81,0,0,1,5.34-.71,20.44,20.44,0,0,1,5.38.65,8.73,8.73,0,0,1,4,2.37,11.37,11.37,0,0,1,2.54,4.65A26.8,26.8,0,0,1,689.9,181.72Zm-4.62.17a25.66,25.66,0,0,0-.57-6,8.68,8.68,0,0,0-1.63-3.55,5.27,5.27,0,0,0-2.62-1.72,12.55,12.55,0,0,0-3.5-.44,12.33,12.33,0,0,0-3.45.44,5.18,5.18,0,0,0-2.59,1.69,8.67,8.67,0,0,0-1.6,3.52,25.37,25.37,0,0,0-.57,6,25.73,25.73,0,0,0,.57,6,8.7,8.7,0,0,0,1.63,3.58,5.28,5.28,0,0,0,2.59,1.72,12.23,12.23,0,0,0,3.47.44,12.58,12.58,0,0,0,3.51-.44,5.18,5.18,0,0,0,2.59-1.69,8.67,8.67,0,0,0,1.6-3.52A25.37,25.37,0,0,0,685.28,181.89Z" transform="translate(0.5 0.5)"/></svg>