<svg xmlns="http://www.w3.org/2000/svg" viewBox="0 0 820 312"><defs><style>.cls-1,.cls-12{fill:#fff;}.cls-2{fill:#464445;}.cls-3{fill:#efcb4b;}.cls-4{fill:#9f8500;}.cls-5{fill:#b49600;}.cls-6{fill:#f0eeef;stroke:#f0eeef;stroke-width:0.76px;}.cls-12,.cls-6,.cls-9{stroke-miterlimit:10;}.cls-7{fill:#ddb800;}.cls-8{fill:#f3cb00;}.cls-9{fill:#eee;stroke:#eee;stroke-width:0.76px;}.cls-10{fill:#796500;}.cls-11{fill:#b59700;}.cls-12{stroke:#fff;stroke-width:0.76px;}</style></defs><title>Portada_DesarrolloWeb_2</title><g id="Capa_2" data-name="Capa 2"><g id="Fondo"><rect id="FondoM2" class="cls-1" width="820" height="312"/><rect id="FondoM2-2" data-name="FondoM2" class="cls-2" width="820" height="312"/></g><g id="IconoM2"><path class="cls-3" d="M329.36,57.12v4L321,65.29l8.34,4.21v3.92L316.8,66.93V63.61Z"/><path class="cls-1" d="M333.81,55.65h5.9a11.18,11.18,0,0,1,5.37,1,9.26,9.26,0,0,1,3.17,3.16,9.8,9.8,0,0,1,1.4,5.46,10.13,10.13,0,0,1-2.44,6.93A8.53,8.53,0,0,1,340.46,75h-6.65Zm4.45,3.55V71.34h1.86a4.07,4.07,0,0,0,3.67-1.85,8.22,8.22,0,0,0,.52-7.59,4.52,4.52,0,0,0-1.7-2.09,4.66,4.66,0,0,0-2.45-.61Z"/><path class="cls-1" d="M366.42,59.33h-9.2v4h7.23v3.64h-7.23v4.22h9.2V75H352.61V55.65h13.81Z"/><path class="cls-1" d="M382.49,59.9l-3.85,1.29a3.16,3.16,0,0,0-3.29-2.3c-1.79,0-2.68.58-2.68,1.75a1.54,1.54,0,0,0,.5,1.17,5.06,5.06,0,0,0,2.27.84,22.24,22.24,0,0,1,4.32,1.2,5.58,5.58,0,0,1,2.32,2,5.22,5.22,0,0,1,.94,3,6,6,0,0,1-2,4.53c-1.34,1.28-3.34,1.92-6,1.92A9.06,9.06,0,0,1,370,73.92a6.45,6.45,0,0,1-2.75-4l4.19-1c.48,1.8,1.79,2.71,3.93,2.71a3.65,3.65,0,0,0,2.32-.61,1.77,1.77,0,0,0,.76-1.43,1.5,1.5,0,0,0-.69-1.32,8.5,8.5,0,0,0-2.67-.88,12.17,12.17,0,0,1-5.26-2.09,4.76,4.76,0,0,1-1.57-3.87,5.74,5.74,0,0,1,1.87-4.35,7.12,7.12,0,0,1,5.09-1.77Q380.87,55.35,382.49,59.9Z"/><path class="cls-1" d="M395.22,55.65l6,19.33H396.4l-1.19-4H389l-1.21,4h-4L390,55.65Zm-5.17,11.78h4.09l-2-6.78Z"/><path class="cls-1" d="M407.91,67.32V75h-4.56V55.65h8.5a10.62,10.62,0,0,1,3.77.55,4.87,4.87,0,0,1,2.36,2,5.89,5.89,0,0,1,.93,3.24,5.15,5.15,0,0,1-3.35,5L419.13,75h-5l-3-7.66Zm0-8.23V64h2.78a7.2,7.2,0,0,0,2-.19,2.19,2.19,0,0,0,1.1-.85,2.49,2.49,0,0,0,.48-1.51,2.31,2.31,0,0,0-.48-1.44,2,2,0,0,0-1.05-.79,9.78,9.78,0,0,0-2.12-.15Z"/><path class="cls-1" d="M427,67.32V75h-4.56V55.65h8.5a10.62,10.62,0,0,1,3.77.55,4.87,4.87,0,0,1,2.36,2,5.89,5.89,0,0,1,.93,3.24,5.15,5.15,0,0,1-3.35,5L438.18,75h-5l-3-7.66Zm0-8.23V64h2.77a7.23,7.23,0,0,0,2-.19,2.19,2.19,0,0,0,1.1-.85,2.49,2.49,0,0,0,.48-1.51,2.31,2.31,0,0,0-.48-1.44,2,2,0,0,0-1.05-.79,9.84,9.84,0,0,0-2.12-.15Z"/><path class="cls-1" d="M448.34,75.28a7.05,7.05,0,0,1-6-2.93,11.76,11.76,0,0,1-2.13-7.1,11.28,11.28,0,0,1,2.16-7.06,7.3,7.3,0,0,1,6.17-2.84,6.89,6.89,0,0,1,6.1,3,11.92,11.92,0,0,1,2.06,6.91,11.63,11.63,0,0,1-2.12,7.1A7.22,7.22,0,0,1,448.34,75.28Zm.13-16.23q-3.56,0-3.56,6.26t3.56,6.27q3.45,0,3.45-6.26T448.47,59.05Z"/><path class="cls-1" d="M464.21,71.16h7.69V75H459.62V55.65h4.59Z"/><path class="cls-1" d="M478.81,71.16h7.69V75H474.22V55.65h4.59Z"/><path class="cls-1" d="M495.79,75.28a7.05,7.05,0,0,1-6-2.93,11.76,11.76,0,0,1-2.13-7.1,11.28,11.28,0,0,1,2.16-7.06A7.3,7.3,0,0,1,496,55.35a6.89,6.89,0,0,1,6.1,3,11.92,11.92,0,0,1,2.06,6.91,11.63,11.63,0,0,1-2.12,7.1A7.22,7.22,0,0,1,495.79,75.28Zm.13-16.23q-3.56,0-3.56,6.26t3.56,6.27q3.45,0,3.45-6.26T495.92,59.05Z"/><path class="cls-3" d="M507.64,73.42v-4L516,65.27l-8.34-4.21V57.12l12.56,6.49V67Z"/><path class="cls-3" d="M376.19,93.64v4l-8.34,4.21,8.34,4.21v3.92l-12.56-6.49v-3.32Z"/><path class="cls-1" d="M379.67,116.33H376.8l13.81-24.16h2.84Z"/><path class="cls-1" d="M419.35,92.17l-4.86,19.33H410l-3.17-12.79L403.8,111.5h-4.42l-5-19.33H399L401.7,104q0,.09.15.63c0,.13.09.33.16.59l3.16-13h4.18l3.25,13c.07-.24.16-.65.28-1.22l2.74-11.79Z"/><path class="cls-1" d="M435.28,95.85h-9.21v4h7.24v3.63h-7.24v4.22h9.21v3.83H421.47V92.17h13.81Z"/><path class="cls-1" d="M438,92.17h9a8.71,8.71,0,0,1,3.64.59,5.42,5.42,0,0,1,2,1.7,4.49,4.49,0,0,1,.8,2.69c0,2.14-1.17,3.57-3.49,4.29a5,5,0,0,1,3,1.8,4.77,4.77,0,0,1,1,2.93,5,5,0,0,1-1.64,3.75q-1.63,1.58-5.34,1.58h-9Zm4.51,3.41v4.24h3.43q1.89,0,2.37-.75a2.56,2.56,0,0,0,.49-1.42,2,2,0,0,0-.4-1.27,1.75,1.75,0,0,0-.89-.66,8.39,8.39,0,0,0-1.9-.14Zm0,7.68v4.66H446a3.87,3.87,0,0,0,2.51-.63,2.3,2.3,0,0,0,0-3.35,3.27,3.27,0,0,0-2.34-.68Z"/><path class="cls-3" d="M457.45,109.94v-4l8.34-4.18-8.34-4.21V93.64L470,100.13v3.35Z"/><polygon class="cls-4" points="251.33 191.93 258 269.31 289.02 278.02 320.51 269.81 327.16 191.93 251.33 191.93"/><polygon class="cls-5" points="289.25 198.13 289.25 271.36 314.35 264.25 320.31 198.13 289.25 198.13"/><polygon class="cls-6" points="312.9 207.85 312.34 217.11 275.97 217.11 276.48 226.75 311.33 226.75 308.68 256.44 289.25 262.11 269.29 256.5 268.28 241.06 277.93 241.06 278.43 248.81 289.25 251.84 300.05 248.81 301.06 236.46 267.78 236.46 265.19 207.85 312.9 207.85"/><polygon class="cls-6" points="258.27 170.69 258.27 185.03 262.86 185.03 262.86 180.14 267.49 180.14 267.49 185.03 272.07 185.03 272.07 170.69 267.49 170.69 267.49 175.56 262.86 175.56 262.86 170.69 258.27 170.69"/><polygon class="cls-6" points="274.67 170.69 274.67 175.27 278.76 175.27 278.76 185.03 283.35 185.03 283.35 175.27 287.44 175.27 287.44 170.69 274.67 170.69"/><polygon class="cls-6" points="290.03 170.69 290.03 185.03 294.6 185.03 294.6 178.35 297.94 182.95 301.31 178.35 301.31 185.03 305.91 185.03 305.91 170.69 301.31 170.69 298.19 175.58 295.13 170.69 290.03 170.69"/><polygon class="cls-6" points="308.99 170.69 308.99 185.03 320.24 185.03 320.24 180.42 313.57 180.42 313.57 170.69 308.99 170.69"/><polygon class="cls-7" points="371.58 168.7 378.27 246.32 409.39 255.07 440.98 246.83 447.66 168.7 371.58 168.7"/><polygon class="cls-8" points="409.62 174.91 409.62 248.38 434.81 241.25 440.78 174.91 409.62 174.91"/><polygon class="cls-9" points="391.81 178.52 429.84 178.52 431.8 199.09 422.15 199.09 421.19 188.81 400.54 188.81 398.98 204.21 431.8 204.21 429.3 233.51 409.54 238.9 389.69 233.54 388.73 218.6 397.98 218.6 398.41 225.8 409.48 228.93 420.07 226.3 421.14 213.47 388.73 213.47 391.81 178.52"/><polygon class="cls-9" points="402.59 147.69 402.59 157.49 395.89 157.49 395.89 162.04 407.23 162.04 407.23 147.69 402.59 147.69"/><polygon class="cls-9" points="423.13 162.04 409.8 162.04 409.8 158.21 416.46 158.21 409.8 151.26 409.8 147.69 423.13 147.69 423.13 151.48 416.46 151.48 423.13 158.47 423.13 162.04"/><polygon class="cls-10" points="491.5 191.82 498.21 269.62 529.39 278.38 561.05 270.12 567.74 191.82 491.5 191.82"/><polygon class="cls-11" points="529.62 198.05 529.62 271.67 554.86 264.53 560.85 198.05 529.62 198.05"/><polygon class="cls-12" points="518.56 247.96 529.62 251.13 540.16 247.96 541.2 235.65 519.03 235.65 518.02 225.88 542.19 225.88 542.73 216.08 506.18 216.08 505.68 206.3 553.57 206.3 549.45 255.25 529.58 260.88 509.72 255.25 508.22 240.29 518.02 240.29 518.56 247.96"/><polygon class="cls-12" points="535.19 184.46 521.74 184.46 521.74 180.6 528.46 180.6 521.74 173.59 521.74 169.99 535.19 169.99 535.19 173.82 528.46 173.82 535.19 180.87 535.19 184.46"/><polygon class="cls-12" points="551.16 184.46 537.71 184.46 537.71 180.6 544.44 180.6 537.71 173.59 537.71 169.99 551.16 169.99 551.16 173.82 544.44 173.82 551.16 180.87 551.16 184.46"/><polygon class="cls-12" points="507.6 169.99 507.6 184.41 518.94 184.41 518.94 180.54 512.22 180.54 512.22 174.08 518.94 174.08 518.94 169.99 507.6 169.99"/><path class="cls-3" d="M134,0Q67,138.5,0,277v35L272.07,0Z"/><path class="cls-3" d="M570.06,312,748,197.87,570.06,0H657L774,197.87Z"/></g></g></svg>