<svg xmlns="http://www.w3.org/2000/svg" viewBox="0 0 820 312"><defs><style>.cls-1,.cls-3{fill:#fff;}.cls-2,.cls-6{fill:#464445;}.cls-3,.cls-4{font-size:29px;font-family:Consolas-Bold, Consolas;}.cls-3,.cls-4,.cls-6{font-weight:700;}.cls-10,.cls-12,.cls-4,.cls-8{fill:#efcb4b;}.cls-11,.cls-13,.cls-14,.cls-15,.cls-16,.cls-5,.cls-7,.cls-9{fill:none;}.cls-10,.cls-11,.cls-12,.cls-13,.cls-14,.cls-15,.cls-16,.cls-5,.cls-6,.cls-7,.cls-9{stroke:#efcb4b;stroke-miterlimit:10;}.cls-5{stroke-width:1.61px;}.cls-6{font-size:32.24px;font-family:CamingoCode-Bold, CamingoCode;}.cls-7{stroke-width:1.63px;}.cls-9{stroke-width:0.4px;}.cls-10{stroke-width:0.21px;}.cls-11{stroke-width:1.46px;}.cls-13{stroke-width:8px;}.cls-14{stroke-width:4.22px;}.cls-15{stroke-width:6.33px;}.cls-16{stroke-width:9.16px;}</style></defs><title>Portada_MantoEquip_1</title><g id="Capa_2" data-name="Capa 2"><g id="Fondo"><rect id="FondoM1" class="cls-1" width="820" height="312"/><rect id="FondoM1-2" data-name="FondoM1" class="cls-2" width="820" height="312"/></g><g id="IconoM1"><text class="cls-3" transform="translate(318.4 70.63)">MANTENIMIENTO</text><text class="cls-3" transform="translate(406.09 103.63)">DE</text><text class="cls-4" transform="translate(366.23 136.63)">EQUIPOS</text><rect class="cls-5" x="494.47" y="183.98" width="65.61" height="65.61"/><rect class="cls-5" x="503.13" y="192.63" width="48.07" height="48.07" rx="3.33" ry="3.33"/><line class="cls-5" x1="508.31" y1="174.09" x2="508.31" y2="183.55"/><line class="cls-5" x1="517.77" y1="174.09" x2="517.77" y2="183.55"/><line class="cls-5" x1="513.04" y1="174.09" x2="513.04" y2="183.55"/><line class="cls-5" x1="522.5" y1="174.09" x2="522.5" y2="183.55"/><line class="cls-5" x1="531.95" y1="174.09" x2="531.95" y2="183.55"/><line class="cls-5" x1="527.22" y1="174.09" x2="527.22" y2="183.55"/><line class="cls-5" x1="536.68" y1="174.09" x2="536.68" y2="183.55"/><line class="cls-5" x1="546.13" y1="174.09" x2="546.13" y2="183.55"/><line class="cls-5" x1="541.41" y1="174.09" x2="541.41" y2="183.55"/><line class="cls-5" x1="508.31" y1="250.02" x2="508.31" y2="259.48"/><line class="cls-5" x1="517.77" y1="250.02" x2="517.77" y2="259.48"/><line class="cls-5" x1="513.04" y1="250.02" x2="513.04" y2="259.48"/><line class="cls-5" x1="522.5" y1="250.02" x2="522.5" y2="259.48"/><line class="cls-5" x1="531.95" y1="250.02" x2="531.95" y2="259.48"/><line class="cls-5" x1="527.22" y1="250.02" x2="527.22" y2="259.48"/><line class="cls-5" x1="536.68" y1="250.02" x2="536.68" y2="259.48"/><line class="cls-5" x1="546.13" y1="250.02" x2="546.13" y2="259.48"/><line class="cls-5" x1="541.41" y1="250.02" x2="541.41" y2="259.48"/><line class="cls-5" x1="570.06" y1="198.41" x2="560.61" y2="198.41"/><line class="cls-5" x1="570.06" y1="207.87" x2="560.61" y2="207.87"/><line class="cls-5" x1="570.06" y1="203.14" x2="560.61" y2="203.14"/><line class="cls-5" x1="570.06" y1="212.59" x2="560.61" y2="212.59"/><line class="cls-5" x1="570.06" y1="222.05" x2="560.61" y2="222.05"/><line class="cls-5" x1="570.06" y1="217.32" x2="560.61" y2="217.32"/><line class="cls-5" x1="570.06" y1="226.78" x2="560.61" y2="226.78"/><line class="cls-5" x1="570.06" y1="236.23" x2="560.61" y2="236.23"/><line class="cls-5" x1="570.06" y1="231.51" x2="560.61" y2="231.51"/><line class="cls-5" x1="493.95" y1="197.87" x2="484.5" y2="197.87"/><line class="cls-5" x1="493.95" y1="207.33" x2="484.5" y2="207.33"/><line class="cls-5" x1="493.95" y1="202.6" x2="484.5" y2="202.6"/><line class="cls-5" x1="493.95" y1="212.06" x2="484.5" y2="212.06"/><line class="cls-5" x1="493.95" y1="221.51" x2="484.5" y2="221.51"/><line class="cls-5" x1="493.95" y1="216.79" x2="484.5" y2="216.79"/><line class="cls-5" x1="493.95" y1="226.24" x2="484.5" y2="226.24"/><line class="cls-5" x1="493.95" y1="235.7" x2="484.5" y2="235.7"/><line class="cls-5" x1="493.95" y1="230.97" x2="484.5" y2="230.97"/><text class="cls-6" transform="translate(517.77 226.78)">C</text><rect class="cls-7" x="274.01" y="185.96" width="69.92" height="43.7" rx="4.15" ry="4.15"/><rect class="cls-8" x="304.6" y="231.78" width="8.74" height="11.47" rx="3.59" ry="3.59"/><rect class="cls-9" x="304.6" y="231.78" width="8.74" height="11.47" rx="3.59" ry="3.59"/><path class="cls-10" d="M295.64,245.38h26.57a8.21,8.21,0,0,1,1,1.42,9.3,9.3,0,0,1,.89,6H293.86a9.71,9.71,0,0,1,.78-5.88A9.58,9.58,0,0,1,295.64,245.38Z"/><path class="cls-11" d="M281.12,188.2a4.36,4.36,0,0,0-4.55,4.77"/><path class="cls-11" d="M336.34,226.68a4.37,4.37,0,0,0,4.56-4.77"/><path class="cls-12" d="M397.38,206.79l28.83,28.75a15.68,15.68,0,0,0-.37,7.36,14.31,14.31,0,0,0,12.76,11.81,15.53,15.53,0,0,0,8-1.22l-10.38-10.43a4.66,4.66,0,0,1,6.42-6.34L453.12,247a15.86,15.86,0,0,0,1.26-7.53,15.16,15.16,0,0,0-3.27-8.34c-3.51-4.14-9.74-5.67-15.9-4.13l-28.79-28.87a20.86,20.86,0,0,0,.52-4.63,16.38,16.38,0,0,0-.68-5.26,14.2,14.2,0,0,0-4.65-6.67,13.94,13.94,0,0,0-7.91-2.83,14.84,14.84,0,0,0-7.48,1.64l10.71,11s1.6,7.12-5.89,6.14L379.88,187a14.32,14.32,0,0,0,1.72,15.62,14.51,14.51,0,0,0,9.94,4.82A15.6,15.6,0,0,0,397.38,206.79Z"/><path class="cls-12" d="M403.91,219.4l10,10-25.08,25.08s-12.74,3.49-10.54-9.27Z"/><path class="cls-12" d="M421.36,206.8l5.14,5.31,12.9-12.78,9.38-4.93L454.43,184l-4.91-5.15-10.59,5.56-4.83,9.41Z"/><circle class="cls-13" cx="143.77" cy="90.76" r="57.8"/><circle class="cls-8" cx="164.72" cy="96.38" r="16.42"/><circle class="cls-14" cx="76.97" cy="237.31" r="30.48"/><circle class="cls-8" cx="72.13" cy="226.95" r="8.66"/><circle class="cls-15" cx="631.66" cy="70.63" r="45.7"/><circle class="cls-8" cx="631.99" cy="87.78" r="12.98"/><circle class="cls-16" cx="730.28" cy="219.84" r="66.16"/><circle class="cls-8" cx="706.17" cy="213.91" r="18.79"/></g></g></svg>