<svg xmlns="http://www.w3.org/2000/svg" xmlns:xlink="http://www.w3.org/1999/xlink" viewBox="0 0 820 312"><defs><style>.cls-1{fill:none;}.cls-2{fill:#211915;}.cls-3{isolation:isolate;}.cls-4,.cls-7,.cls-8,.cls-9{fill:#464445;}.cls-5{opacity:0.5;mix-blend-mode:soft-light;fill:url(#_6_ppp_60_);}.cls-10,.cls-6{fill:#efcb4b;}.cls-10,.cls-11,.cls-12,.cls-7{font-size:13px;}.cls-7,.cls-9{font-family:CamingoCode-BoldItalic, CamingoCode;font-style:italic;}.cls-10,.cls-11,.cls-12,.cls-7,.cls-8,.cls-9{font-weight:700;}.cls-7{letter-spacing:-0.01em;}.cls-8{font-size:41.72px;}.cls-10,.cls-11,.cls-12,.cls-8{font-family:CamingoCode-Bold, CamingoCode;}.cls-9{font-size:11.07px;}.cls-10,.cls-11{letter-spacing:0em;}.cls-11,.cls-12{fill:#fff;}.cls-12{letter-spacing:0em;}</style><pattern id="_6_ppp_60_" data-name="6 ppp 60%" width="48" height="48" patternUnits="userSpaceOnUse" viewBox="0 0 48 48"><rect class="cls-1" width="48" height="48"/><path class="cls-2" d="M24,55.2A7.2,7.2,0,1,0,16.8,48,7.2,7.2,0,0,0,24,55.2Z"/><path class="cls-2" d="M48,55.2A7.2,7.2,0,1,0,40.8,48,7.2,7.2,0,0,0,48,55.2Z"/><path class="cls-2" d="M24,31.2A7.2,7.2,0,1,0,16.8,24,7.2,7.2,0,0,0,24,31.2Z"/><path class="cls-2" d="M48,31.2A7.2,7.2,0,1,0,40.8,24,7.2,7.2,0,0,0,48,31.2Z"/><path class="cls-2" d="M36,43.2A7.2,7.2,0,1,0,28.8,36,7.2,7.2,0,0,0,36,43.2Z"/><path class="cls-2" d="M12,43.2A7.2,7.2,0,1,0,4.8,36,7.2,7.2,0,0,0,12,43.2Z"/><path class="cls-2" d="M36,19.2A7.2,7.2,0,1,0,28.8,12,7.2,7.2,0,0,0,36,19.2Z"/><path class="cls-2" d="M12,19.2A7.2,7.2,0,1,0,4.8,12,7.2,7.2,0,0,0,12,19.2Z"/><path class="cls-2" d="M0,55.2A7.2,7.2,0,0,0,0,40.8,7.2,7.2,0,0,0-7.2,48,7.2,7.2,0,0,0,0,55.2Z"/><path class="cls-2" d="M0,31.2A7.2,7.2,0,0,0,0,16.8,7.2,7.2,0,0,0-7.2,24,7.2,7.2,0,0,0,0,31.2Z"/><path class="cls-2" d="M24,7.2A7.2,7.2,0,0,0,31.2,0,7.2,7.2,0,0,0,24-7.2,7.2,7.2,0,0,0,16.8,0,7.2,7.2,0,0,0,24,7.2Z"/><path class="cls-2" d="M48,7.2A7.2,7.2,0,0,0,55.2,0,7.2,7.2,0,0,0,48-7.2,7.2,7.2,0,0,0,40.8,0,7.2,7.2,0,0,0,48,7.2Z"/><path class="cls-2" d="M0,7.2A7.2,7.2,0,0,0,7.2,0,7.2,7.2,0,0,0,0-7.2,7.2,7.2,0,0,0-7.2,0,7.2,7.2,0,0,0,0,7.2Z"/></pattern></defs><title>Portada_FB_V2_1</title><g class="cls-3"><g id="Capa_2" data-name="Capa 2"><g id="Fondo"><rect class="cls-4" width="820" height="312"/><rect class="cls-5" width="820" height="312"/></g><g id="Contacoto"><rect class="cls-6" y="230.33" width="820" height="51.67"/><text class="cls-7" transform="translate(316.91 247.71)">&lt;Teléfono/&gt;</text><text class="cls-7" transform="translate(397.42 247.71)">753-68-8-20-37</text><text class="cls-7" transform="translate(285.55 272.88)">&lt;e-Mail/&gt;</text><text class="cls-7" transform="translate(351.26 272.88)">codigmaofficial@gmail.com</text></g><g id="Slogan"><rect class="cls-6" y="30.17" width="820" height="89.25"/><text class="cls-8" transform="translate(359.88 79.27)">codigma</text><text class="cls-9" transform="translate(379.31 103.16)">Confía en tus ideas.</text><polygon class="cls-4" points="330.91 50.94 326.44 55.41 319.29 48.26 308.56 37.52 317.5 37.52 330.91 50.94"/><polygon class="cls-4" points="355.06 75.08 335.38 94.76 330.91 99.23 328.23 101.92 317.5 112.65 308.56 112.65 319.29 101.92 326.44 94.76 328.23 92.98 330.91 90.29 337.17 84.03 346.12 75.09 330.91 59.89 333.6 57.2 335.39 55.41 337.17 57.2 340.46 60.48 345 65.02 355.06 75.08"/><polygon class="cls-4" points="353.27 37.52 342.54 48.26 335.39 55.41 333.6 57.2 330.91 59.89 324.65 66.15 315.71 75.09 321.1 80.48 325.64 85.03 330.91 90.29 328.23 92.98 326.44 94.76 324.65 92.97 321.25 89.57 316.71 85.02 306.77 75.08 326.44 55.41 330.91 50.94 344.33 37.52 353.27 37.52"/><polygon class="cls-4" points="353.27 112.65 344.33 112.65 333.6 101.92 330.91 99.23 335.38 94.76 342.54 101.92 353.27 112.65"/><polygon class="cls-4" points="316.7 85.02 321.25 89.57 308.43 102.81 299.49 102.81 316.7 85.02"/><polygon class="cls-4" points="340.6 69.57 325.64 85.03 321.1 80.48 336.05 65.03 340.6 69.57"/><polygon class="cls-4" points="362.09 47.36 345 65.02 340.46 60.48 353.15 47.36 362.09 47.36"/></g><g id="Servicios"><text class="cls-10" transform="translate(375.09 142.67)">Servicios</text><text class="cls-11" transform="translate(247.41 163.4)">&lt;Desarrollo Web/&gt;</text><text class="cls-11" transform="translate(451.84 163.4)">&lt;Desarrollo móvil/&gt;</text><text class="cls-11" transform="translate(346.7 187.22)">&lt;Diseño gráfico/&gt;</text><text class="cls-12" transform="translate(318.31 212.22)">&lt;Software de escritorio/&gt;</text></g></g></g></svg>